<svg width="50" height="40" viewBox="0 0 50 40" fill="none" xmlns="http://www.w3.org/2000/svg">
<g clip-path="url(#clip0_1518_224)">
<path fill-rule="evenodd" clip-rule="evenodd" d="M20.3036 15.5626H18.2915C18.2372 15.9106 18.1828 16.2586 18.0741 16.6066L16.4427 22.8276H18.4004L19.1617 20.0869C19.4336 20.6962 20.0862 21.0004 20.9562 21.0004C22.8594 21.0004 24.1102 19.565 24.4907 18.2161C24.8715 16.7805 24.2189 15.4319 22.1523 15.4319C21.4997 15.4319 20.6841 15.7365 20.1946 16.1715L20.3036 15.5626ZM19.6512 18.2163C19.8144 17.4767 20.467 16.4761 21.4999 16.4761C22.7507 16.4761 22.6962 17.3898 22.4786 18.2163C22.2612 18.9993 21.8262 19.9564 20.5754 19.9564C19.5423 19.9564 19.4336 18.9123 19.6512 18.2163ZM25.6329 15.5626C25.5239 15.9542 25.4697 16.3892 25.4155 16.6066L24.3276 20.8265H26.231L26.9379 18.2161C27.0468 17.8681 27.1553 17.5635 27.4274 17.3026C27.6995 17.0852 28.1889 16.9111 28.515 16.9111H29.385L29.7113 15.519C28.7326 15.4757 27.8626 15.6929 27.21 16.5197L27.4274 15.5626H25.6329ZM35.3122 18.6077C35.3669 18.2597 35.4759 17.9551 35.5301 17.6073C35.5301 17.2591 35.5301 16.9546 35.4211 16.6936C35.149 15.7365 34.1703 15.4319 32.974 15.4319C30.9621 15.4319 29.494 16.65 29.0587 18.2161C28.6234 19.9562 29.2219 21.0004 31.5058 21.0004C33.0282 21.0004 34.388 20.5654 34.9317 19.2604H33.1372C32.8108 19.7389 32.4303 19.9564 31.7779 19.9564C30.7445 19.9564 30.7992 19.3039 31.0163 18.6077H35.3122ZM31.2885 17.5637C31.4516 16.998 31.7779 16.4761 32.7019 16.4761C33.6264 16.4761 33.6806 16.9982 33.5177 17.5637H31.2885ZM41.6202 16.9548C41.8381 15.8237 40.8044 15.4321 39.3909 15.4321C38.2491 15.4321 36.4546 15.9106 36.1825 16.9982C35.8561 18.2163 36.944 18.4338 38.1401 18.6949C38.5207 18.7382 39.3909 18.9123 39.282 19.3475C39.173 19.7391 38.7383 19.9566 38.1943 19.9566C37.6506 19.9566 37.2156 19.6957 37.3243 19.3041H35.4756C35.2035 20.5225 36.3996 21.0006 37.9227 21.0006C39.1188 21.0006 41.0223 20.3917 41.3486 19.2606C41.8923 17.3029 37.977 17.7816 38.1943 16.9551C38.3033 16.6068 38.5754 16.4763 39.1188 16.4763C39.5541 16.4763 39.9346 16.6068 39.8804 16.9984L41.6202 16.9548ZM47.7652 16.9548C47.9826 15.8237 46.9494 15.4321 45.5355 15.4321C44.3936 15.4321 42.5991 15.9106 42.3275 16.9982C42.0012 18.2163 43.0886 18.4338 44.2852 18.6949C44.6657 18.7382 45.5355 18.9123 45.4271 19.3475C45.3181 19.7391 44.8828 19.9566 44.3394 19.9566C43.796 19.9566 43.3607 19.6957 43.4694 19.3041H41.6202C41.3486 20.5225 42.5447 21.0006 44.0673 21.0006C45.2639 21.0006 47.1673 20.3917 47.4931 19.2606C48.0373 17.3029 44.122 17.7816 44.3394 16.9551C44.4484 16.6068 44.7199 16.4763 45.2639 16.4763C45.6986 16.4763 46.0797 16.6068 46.025 16.9984L47.7652 16.9548ZM8.55791 18.6077C8.66659 18.2597 8.72107 17.9551 8.77528 17.6073C8.82949 17.2591 8.82949 16.9546 8.72107 16.6936C8.39475 15.7365 7.47026 15.4319 6.21946 15.4319C4.2618 15.4319 2.73915 16.65 2.35862 18.2161C1.86914 19.9562 2.52178 21.0004 4.75128 21.0004C6.27393 21.0004 7.68764 20.5654 8.17711 19.2604H6.43709C6.11077 19.7389 5.72998 19.9564 5.02313 19.9564C4.04443 19.9564 4.0989 19.3039 4.2618 18.6077H8.55791ZM4.53365 17.5637C4.69681 16.998 5.0776 16.4761 5.94761 16.4761C6.92631 16.4761 6.98052 16.9982 6.81762 17.5637H4.53365Z" fill="#0C0E0F"/>
<path fill-rule="evenodd" clip-rule="evenodd" d="M9.26485 22.0883L7.30719 24.5679H6.60034L10.842 18.8689L8.50353 15.5625H12.3646L13.1804 16.9547L13.9417 15.5625H17.8023L15.736 18.1728L18.1831 21.7834H14.4852L13.5062 20.3045L10.6786 24.5679H10.0259C10.0259 24.5679 10.6786 23.5239 11.1136 22.8712L10.9504 22.8274L9.5367 24.5679H8.93853L10.298 22.523L10.0806 22.4359L8.39484 24.5677H7.85089L9.42801 22.1748L9.26485 22.0883Z" fill="#CD5241"/>
</g>
<defs>
<clipPath id="clip0_1518_224">
<rect width="50" height="40" fill="white"/>
</clipPath>
</defs>
</svg>
