<svg width="37" height="35" viewBox="0 0 37 35" fill="none" xmlns="http://www.w3.org/2000/svg">
<g clip-path="url(#clip0_1513_252)">
<path fill-rule="evenodd" clip-rule="evenodd" d="M18.5035 3.07324L3.36801 12.6696L9.6677 16.5392L17.1945 11.7408L14.2089 9.88564L18.2985 7.29381L27.1726 12.8644L12.614 22.1099L15.763 24.0828L33.8792 12.671L33.8384 12.6323L18.5035 3.07324V3.07324ZM33.5969 3.07724L27.2993 7.02308L30.4481 9.03459L33.5969 7.02308V3.07724ZM3.26416 31.9271L9.56193 27.9814L6.41314 25.9697L3.26416 27.9814V31.9271V31.9271Z" fill="#33348E"/>
<path fill-rule="evenodd" clip-rule="evenodd" d="M18.4966 31.9189L33.6318 22.3224L27.3323 18.4528L19.8057 23.2511L22.7909 25.1063L18.7016 27.6983L9.82743 22.1275L24.3859 12.8822L21.2371 10.9092L3.12061 22.3209L3.16149 22.36L18.4966 31.9189V31.9189Z" fill="#33348E"/>
</g>
<defs>
<clipPath id="clip0_1513_252">
<rect width="37" height="35" fill="white"/>
</clipPath>
</defs>
</svg>
