<svg width="59" height="33" viewBox="0 0 59 33" fill="none" xmlns="http://www.w3.org/2000/svg">
<g clip-path="url(#clip0_1514_292)">
<path d="M41.2519 33L42.1668 32.9793L43.064 32.9135L43.9522 32.8107L44.8274 32.6624L45.6848 32.4814L46.5289 32.259L47.3509 31.9955L48.1554 31.7031L48.942 31.3696L49.7066 31.0073L50.4492 30.6079L51.1697 30.1756L51.8679 29.7186L52.5353 29.2245L53.1805 28.7058L53.7949 28.1581L54.3827 27.5858L54.9395 26.9848L55.47 26.3589L55.9649 25.7125L56.4246 25.0414L56.8533 24.3496L57.2422 23.6373L57.6003 22.9044L57.9141 22.1551L58.1969 21.3852L58.4356 20.6029L58.63 19.8001L58.7892 18.9889L58.8995 18.1614L58.9703 17.3214L58.9923 16.4692L58.9703 15.6251L58.8995 14.7893L58.7892 13.9658L58.63 13.1589L58.4356 12.3601L58.1969 11.582L57.9141 10.8161L57.6003 10.0709L57.2422 9.34214L56.8533 8.62983L56.4246 7.94226L55.9649 7.27115L55.47 6.62472L54.9395 6.00304L54.3827 5.40604L53.7949 4.83372L53.1805 4.28608L52.5353 3.76731L51.8679 3.27733L51.1697 2.82039L50.4492 2.39218L49.7066 1.99276L48.942 1.62632L48.1554 1.29697L47.3509 1.00053L46.5289 0.741108L45.6848 0.518775L44.8274 0.337577L43.9522 0.189355L43.064 0.0864509L42.1668 0.0204972L41.2519 0L40.3371 0.0204972L39.4353 0.0864509L38.5514 0.189355L37.6763 0.337577L36.819 0.518775L35.9748 0.741108L35.1528 1.00053L34.3483 1.29697L33.5617 1.62632L32.8014 1.99276L32.0588 2.39218L31.3385 2.82039L30.6447 3.27733L29.9773 3.76731L29.332 4.28608L28.7177 4.83372L28.1343 5.40604L27.5774 6.00304L27.0514 6.62472L26.5565 7.27115L26.0968 7.94226L25.6725 8.62983L25.2792 9.34214L24.9257 10.0709L24.6118 10.8161L24.3334 11.582L24.0947 12.3601L23.8959 13.1589L23.7411 13.9658L23.6306 14.7893L23.5599 15.6251L23.5378 16.4692L23.5599 17.3214L23.6306 18.1614L23.7411 18.9889L23.8959 19.8001L24.0947 20.6029L24.3334 21.3852L24.6118 22.1551L24.9257 22.9044L25.2792 23.6373L25.6725 24.3496L26.0968 25.0414L26.5565 25.7125L27.0514 26.3589L27.5774 26.9848L28.1343 27.5858L28.7177 28.1581L29.332 28.7058L29.9773 29.2245L30.6447 29.7186L31.3385 30.1756L32.0588 30.6079L32.8014 31.0073L33.5617 31.3696L34.3483 31.7031L35.1528 31.9955L35.9748 32.259L36.819 32.4814L37.6763 32.6624L38.5514 32.8107L39.4353 32.9135L40.3371 32.9793L41.2519 33V33Z" fill="#2985C3"/>
<path d="M17.7526 33L18.6673 32.9793L19.569 32.9135L20.4529 32.8107L21.328 32.6624L22.1854 32.4814L23.0296 32.259L23.8517 31.9955L24.656 31.7031L25.4427 31.3696L26.2029 31.0073L26.9454 30.6079L27.6658 30.1756L28.3597 29.7186L29.0271 29.2245L29.6724 28.7058L30.2867 28.1581L30.8701 27.5858L31.427 26.9848L31.9529 26.3589L32.4479 25.7125L32.9075 25.0414L33.3319 24.3496L33.7252 23.6373L34.0788 22.9044L34.3925 22.1551L34.671 21.3852L34.9096 20.6029L35.1085 19.8001L35.2632 18.9889L35.3737 18.1614L35.4445 17.3214L35.4666 16.4692L35.4445 15.6251L35.3737 14.7893L35.2632 13.9658L35.1085 13.1589L34.9096 12.3601L34.671 11.582L34.3925 10.8161L34.0788 10.0709L33.7252 9.34214L33.3319 8.62983L32.9075 7.94226L32.4479 7.27115L31.9529 6.62472L31.427 6.00304L30.8701 5.40604L30.2867 4.83372L29.6724 4.28608L29.0271 3.76731L28.3597 3.27733L27.6658 2.82039L26.9454 2.39218L26.2029 1.99276L25.4427 1.62632L24.656 1.29697L23.8517 1.00053L23.0296 0.741108L22.1854 0.518775L21.328 0.337577L20.4529 0.189355L19.569 0.0864509L18.6673 0.0204972L17.7526 0L16.8377 0.0204972L15.9404 0.0864509L15.052 0.189355L14.177 0.337577L13.3195 0.518775L12.4754 0.741108L11.6534 1.00053L10.8445 1.29697L10.0623 1.62632L9.29327 1.99276L8.55072 2.39218L7.83032 2.82039L7.13641 3.27733L6.46466 3.76731L5.82382 4.28608L5.20505 4.83372L4.61726 5.40604L4.06039 6.00304L3.53435 6.62472L3.03944 7.27115L2.57536 7.94226L2.15103 8.62983L1.75767 9.34214L1.40414 10.0709L1.08592 10.8161L0.807445 11.582L0.564369 12.3601L0.369938 13.1589L0.210831 13.9658L0.100368 14.7893L0.029571 15.6251L0.00756836 16.4692L0.029571 17.3214L0.100368 18.1614L0.210831 18.9889L0.369938 19.8001L0.564369 20.6029L0.807445 21.3852L1.08592 22.1551L1.40414 22.9044L1.75767 23.6373L2.15103 24.3496L2.57536 25.0414L3.03944 25.7125L3.53435 26.3589L4.06039 26.9848L4.61726 27.5858L5.20505 28.1581L5.82382 28.7058L6.46466 29.2245L7.13641 29.7186L7.83032 30.1756L8.55072 30.6079L9.29327 31.0073L10.0623 31.3696L10.8445 31.7031L11.6534 31.9955L12.4754 32.259L13.3195 32.4814L14.177 32.6624L15.052 32.8107L15.9404 32.9135L16.8377 32.9793L17.7526 33V33Z" fill="#405699"/>
<path d="M27.3167 6.28302H36.3019V5.36072H28.1874L27.3167 6.28302ZM25.9068 8.2387H36.3019V7.31639H26.5388L25.9068 8.2387ZM24.8593 10.2191H36.3019V9.29682H25.3367L24.8593 10.2191ZM24.1699 12.1748H36.3019V11.2526H24.4704L24.1699 12.1748V12.1748ZM23.719 14.1305H36.3019V13.2082H23.9002L23.719 14.1305ZM23.5378 16.0821H36.3019V15.1599H23.5997L23.5378 16.0821ZM23.6306 18.0337H36.3019V17.1114H23.5378L23.6306 18.0337ZM23.9312 19.9895H36.3019V19.0672H23.75L23.9312 19.9895ZM24.5278 21.941H36.3019V21.0228H24.2273L24.5278 21.941ZM25.4295 23.8967H36.3019V22.9744H24.9477L25.4295 23.8967V23.8967ZM26.6846 25.8812H36.3019V24.9302H26.0262L26.6846 25.8812ZM28.395 27.8328H36.3019V26.9148H27.5244L28.395 27.8328Z" fill="#2985C3"/>
<path d="M54.6611 21.134L54.6655 21.1134L54.6876 21.0353L54.714 20.9612L54.7539 20.8953L54.7981 20.8294L54.8468 20.7676L54.9042 20.714L54.966 20.6646L55.0323 20.6194L55.103 20.5824L55.1781 20.5494L55.2577 20.5248L55.3417 20.5081L55.4302 20.4959L55.5184 20.4918L55.6025 20.4959L55.682 20.5081L55.7615 20.5248L55.8366 20.5494L55.9119 20.5824L55.9825 20.6194L56.0445 20.6646L56.1063 20.714L56.1594 20.7676L56.2125 20.8294L56.2522 20.8953L56.2919 20.9612L56.3184 21.0353L56.3405 21.1134L56.345 21.134H56.1902L56.1505 21.0188L56.0843 20.9117L55.9958 20.817L55.8943 20.7388L55.7792 20.6812L55.6512 20.644L55.5184 20.6318L55.4478 20.6359L55.3771 20.644L55.3063 20.6605L55.2401 20.6812L55.1781 20.7059L55.1207 20.7388L55.0632 20.7759L55.0147 20.817L54.966 20.8623L54.9219 20.9117L54.8865 20.9653L54.8556 21.0188L54.8335 21.0805L54.8158 21.134H54.6611V21.134Z" fill="white"/>
<path d="M55.1872 21.134V20.9117H55.5495L55.6203 20.9159L55.6821 20.9283L55.7352 20.9447L55.7749 20.9693L55.8059 21.0023L55.828 21.0393L55.8413 21.0847L55.8457 21.134H55.7219L55.7265 21.1053L55.7219 21.0764L55.7042 21.0559L55.6821 21.0434L55.6557 21.0312L55.6247 21.027L55.5893 21.0229H55.3374V21.134H55.1872V21.134ZM54.6479 21.2576L54.6524 21.1917L54.6613 21.134H54.816L54.8115 21.1423L54.8026 21.2082L54.7982 21.2576H54.6479V21.2576Z" fill="white"/>
<path d="M55.1873 21.2576V21.134H55.3375V21.2453H55.5409L55.5894 21.2369L55.6292 21.2288L55.6645 21.2164L55.6911 21.1999L55.7088 21.1753L55.722 21.1423V21.134H55.8458L55.8414 21.1712L55.8281 21.2082L55.8104 21.2369L55.7927 21.2576H55.1873V21.2576ZM56.2081 21.2576L56.195 21.1423L56.1905 21.134H56.3452L56.354 21.1918L56.3584 21.2576H56.2081V21.2576Z" fill="white"/>
<path d="M54.6479 21.2576V21.2741L54.6524 21.3605L54.6657 21.4427L54.6878 21.5251L54.7142 21.5993L54.7541 21.6693L54.7982 21.7392L54.8469 21.797L54.9043 21.8546L54.9662 21.904L55.0324 21.9492L55.1031 21.9904L55.1783 22.0234L55.2578 22.048L55.3419 22.0645L55.4303 22.0769L55.5185 22.081L55.6026 22.0769L55.6821 22.0645L55.7616 22.048L55.8368 22.0234L55.9121 21.9904L55.9826 21.9492L56.0447 21.904L56.1065 21.8546L56.1595 21.797L56.2126 21.7392L56.2523 21.6693L56.2921 21.5993L56.3186 21.5251L56.3407 21.4427L56.3539 21.3605L56.3583 21.2741V21.2576H56.208V21.2741L56.1949 21.414L56.1506 21.5416L56.0844 21.657L55.9959 21.7557L55.8944 21.834L55.7794 21.8916L55.6513 21.9286L55.5185 21.941L55.448 21.9369L55.3773 21.9286L55.3065 21.9122L55.2402 21.8916L55.1783 21.8669L55.1209 21.834L55.0634 21.797L55.0149 21.7557L54.9662 21.7063L54.9221 21.657L54.8867 21.6033L54.8557 21.5416L54.8336 21.4798L54.8115 21.414L54.8026 21.344L54.7982 21.2741V21.2576H54.6479V21.2576Z" fill="white"/>
<path d="M55.1873 21.2576V21.6076H55.3375V21.3276H55.4878L55.6689 21.6076H55.8193L55.6381 21.3276L55.6822 21.3152L55.722 21.2987L55.7574 21.2822L55.7884 21.2617L55.7927 21.2576H55.1873V21.2576Z" fill="white"/>
<path d="M54.6479 21.2741L54.6524 21.1917L54.6657 21.1134L54.6878 21.0353L54.7143 20.9612L54.7541 20.8954L54.7983 20.8295L54.8469 20.7676L54.9044 20.7141L54.9662 20.6647L55.0325 20.6195L55.1032 20.5825L55.1783 20.5495L55.2578 20.5248L55.3419 20.5082L55.4303 20.4959L55.5186 20.4918L55.6027 20.4959L55.6821 20.5082L55.7616 20.5248L55.8368 20.5495L55.9121 20.5825L55.9826 20.6195L56.0446 20.6647L56.1064 20.7141L56.1595 20.7676L56.2125 20.8295L56.2523 20.8954L56.292 20.9612L56.3185 21.0353L56.3406 21.1134L56.3539 21.1917L56.3583 21.2741L56.3539 21.3606L56.3406 21.4429L56.3185 21.5253L56.292 21.5993L56.2523 21.6693L56.2125 21.7393L56.1595 21.797L56.1064 21.8546L56.0446 21.904L55.9826 21.9492L55.9121 21.9905L55.8368 22.0235L55.7616 22.0481L55.6821 22.0646L55.6027 22.077L55.5186 22.0811L55.4303 22.077L55.3419 22.0646L55.2578 22.0481L55.1783 22.0235L55.1032 21.9905L55.0325 21.9492L54.9662 21.904L54.9044 21.8546L54.8469 21.797L54.7983 21.7393L54.7541 21.6693L54.7143 21.5993L54.6878 21.5253L54.6657 21.4429L54.6524 21.3606L54.6479 21.2741ZM55.3374 21.6076H55.1872V20.9118H55.5495L55.6203 20.9159L55.6821 20.9283L55.7351 20.9448L55.7749 20.9695L55.8059 21.0024L55.8279 21.0395L55.8413 21.0848L55.8457 21.1341L55.8413 21.1712L55.8279 21.2082L55.8103 21.237L55.7882 21.2617L55.7572 21.2823L55.7218 21.2987L55.6821 21.3152L55.6379 21.3276L55.8192 21.6076H55.6688L55.4876 21.3276H55.3374V21.6076H55.3374ZM55.4877 21.2453H55.5408L55.5893 21.237L55.629 21.2288L55.6644 21.2164L55.691 21.2L55.7086 21.1753L55.7218 21.1423L55.7264 21.1053L55.7218 21.0764L55.7041 21.0558L55.6821 21.0434L55.6556 21.0312L55.6246 21.0269L55.5892 21.0228H55.3373V21.2451H55.4877V21.2453ZM55.5185 21.9411L55.6512 21.9287L55.7793 21.8916L55.8943 21.834L55.9959 21.7557L56.0843 21.657L56.1506 21.5417L56.1949 21.4141L56.208 21.2741L56.1949 21.1423L56.1506 21.0188L56.0843 20.9118L55.9959 20.8171L55.8943 20.7389L55.7793 20.6813L55.6512 20.6442L55.5185 20.6319L55.448 20.636L55.3773 20.6442L55.3065 20.6606L55.2403 20.6813L55.1783 20.706L55.1209 20.739L55.0634 20.776L55.0149 20.8171L54.9662 20.8624L54.9221 20.9119L54.8867 20.9654L54.8557 21.019L54.8336 21.0807L54.8115 21.1425L54.8026 21.2084L54.7982 21.2743L54.8026 21.3443L54.8115 21.4143L54.8336 21.48L54.8557 21.5419L54.8867 21.6036L54.9221 21.6572L54.9662 21.7065L55.0149 21.756L55.0634 21.7972L55.1209 21.8343L55.1783 21.8672L55.2403 21.8919L55.3065 21.9125L55.3773 21.9289L55.448 21.9372L55.5185 21.9411V21.9411Z" stroke="white" stroke-width="0.684965"/>
<path d="M54.3342 29.2863L54.3563 29.204L54.3873 29.1298L54.4227 29.0558L54.4668 28.9898L54.5155 28.9281L54.573 28.8705L54.6348 28.8211L54.7011 28.7758L54.7717 28.7387L54.8514 28.7058L54.9309 28.677L55.015 28.6605L55.0989 28.6481L55.1872 28.644L55.2756 28.6481L55.364 28.6605L55.4481 28.677L55.5275 28.7058L55.6027 28.7387L55.6735 28.7758L55.7396 28.8211L55.8016 28.8705L55.8591 28.9281L55.9076 28.9898L55.9519 29.0558L55.9917 29.1298L56.0181 29.204L56.0402 29.2863H55.8547L55.8237 29.1834L55.7617 29.0723L55.6778 28.9734L55.5761 28.8952L55.4612 28.8334L55.3286 28.7964L55.1872 28.784L55.0458 28.7964L54.9176 28.8334L54.7983 28.8952L54.6966 28.9734L54.6127 29.0723L54.5509 29.1834L54.5199 29.2863H54.3342V29.2863Z" fill="#2985C3"/>
<path d="M54.8866 29.2862V29.0928H55.218L55.2931 29.0969L55.3594 29.105L55.4125 29.1175L55.4611 29.1381L55.501 29.1628L55.5274 29.1957L55.5451 29.2368L55.5495 29.2862H55.3992L55.3948 29.2574L55.3815 29.2328L55.3639 29.2163L55.3418 29.1998L55.3151 29.1874L55.2843 29.1792L55.2533 29.1752H55.0369V29.2862H54.8866V29.2862ZM54.3164 29.4262L54.3208 29.3686L54.3341 29.2862H54.5197L54.5108 29.3152L54.502 29.4262H54.3164Z" fill="#2985C3"/>
<path d="M54.8867 29.4262V29.2863H55.037V29.3974H55.2844L55.3198 29.3933L55.3506 29.3851L55.3729 29.3687L55.386 29.3522L55.395 29.3233L55.3993 29.2863H55.5496L55.5452 29.3357L55.5275 29.3728L55.5054 29.4016L55.4744 29.4262H54.8867V29.4262ZM55.8722 29.4262L55.8634 29.3152L55.8546 29.2863H56.0401L56.0535 29.3687L56.0578 29.4262H55.8722Z" fill="#2985C3"/>
<path d="M54.3164 29.4263V29.4551L54.3208 29.5375L54.3341 29.6157L54.3561 29.6939L54.3871 29.7638L54.4225 29.834L54.4667 29.8997L54.5153 29.9575L54.5728 30.011L54.6346 30.0645L54.7009 30.1056L54.7716 30.1467L54.8512 30.1756L54.9308 30.2045L55.0148 30.221L55.0987 30.2332L55.1871 30.2374L55.2754 30.2332L55.3639 30.221L55.4479 30.2045L55.5274 30.1756L55.6025 30.1467L55.6733 30.1056L55.7395 30.0645L55.8014 30.011L55.8589 29.9575L55.9075 29.8997L55.9517 29.834L55.9915 29.7638L56.0179 29.6939L56.04 29.6157L56.0533 29.5375L56.0577 29.4551V29.4263H55.8721L55.8766 29.4551L55.8633 29.5868L55.8235 29.7146L55.7615 29.8257L55.6777 29.9245L55.5759 30.011L55.4611 30.0727L55.3285 30.114L55.1871 30.1262L55.0456 30.114L54.9174 30.0727L54.7981 30.011L54.6964 29.9245L54.6125 29.8257L54.5507 29.7146L54.5108 29.5868L54.4977 29.4551L54.502 29.4263H54.3164V29.4263Z" fill="#2985C3"/>
<path d="M54.8867 29.4263V29.7597H55.037V29.4839H55.1872L55.3683 29.7597H55.5186L55.3065 29.4839L55.3506 29.4717L55.395 29.4592L55.4347 29.4468L55.4744 29.4263H54.8867Z" fill="#2985C3"/>
<path d="M54.1088 14.2129L53.9674 14.2047L53.8347 14.1923L53.7111 14.1799L53.5873 14.1635L53.468 14.147L53.3443 14.1265L53.2161 14.1099L53.0834 14.0894L52.9421 14.0729L52.7873 14.0606L52.6149 14.0524L52.4294 14.0441H52.0006L51.7488 14.0565L51.4703 14.0729L51.2714 14.1018L51.0814 14.1388L50.9134 14.1923L50.7588 14.2541L50.6217 14.3241L50.5024 14.4023L50.4007 14.4929L50.3211 14.5876L50.2593 14.6864L50.2196 14.7935L50.2019 14.9047V15.0199L50.2283 15.1351L50.2814 15.2546L50.3521 15.378L50.4537 15.4975L50.5466 15.588L50.6527 15.6663L50.7631 15.7404L50.887 15.8063L51.0195 15.8681L51.1565 15.9257L51.3024 15.975L51.4526 16.0287L51.6073 16.078L51.7665 16.1233L51.9255 16.1728L52.0846 16.2221L52.2437 16.2757L52.4073 16.3333L52.5619 16.3951L52.7211 16.4609L52.8713 16.535L53.0172 16.6174L53.1586 16.7039L53.2955 16.8068L53.4193 16.9139L53.5386 17.0373L53.6491 17.1731L53.7465 17.3214L53.8304 17.4821L53.9055 17.6632L53.9629 17.8567L54.0073 18.0709L54.0381 18.3014L54.0514 18.5525L54.0425 18.8243L54.0204 19.1207L53.9896 19.3389L53.9453 19.5448L53.8922 19.7382L53.826 19.9236L53.7509 20.1006L53.6668 20.2652L53.574 20.4218L53.468 20.57L53.3575 20.7059L53.2381 20.8335L53.1144 20.9529L52.9819 21.0682L52.8448 21.1712L52.6988 21.2658L52.5531 21.3563L52.3984 21.4346L52.2393 21.5087L52.0802 21.5787L51.9167 21.6405L51.7488 21.6941L51.5852 21.7433L51.4129 21.7887L51.245 21.8258L51.0724 21.8587L50.9045 21.8875L50.7366 21.9122L50.5686 21.9287L50.4007 21.9452L50.2372 21.9575L50.0737 21.9657L49.919 21.9699H49.3444L49.1499 21.9657H48.9642L48.7875 21.9616L48.6152 21.9575L48.456 21.9535L48.3014 21.9492L48.1511 21.9411L48.0096 21.9328L47.8771 21.9287L47.7489 21.9205L47.6252 21.9081L47.5059 21.8999L47.3954 21.8875L47.2849 21.8752L47.1832 21.8628L47.0816 21.8505L46.9844 21.8341L46.8916 21.8176L46.7988 21.8011L46.7103 21.7846L46.6219 21.7682L46.538 21.7476L46.4539 21.727L46.37 21.7063L46.286 21.6816L46.2021 21.6611L46.1225 21.6363L46.0385 21.6076L45.9544 21.5828L45.8662 21.5541L46.317 19.5118L46.3567 19.5242L46.4054 19.5407L46.4583 19.5572L46.5157 19.5736L46.5821 19.5942L46.6528 19.6107L46.7324 19.6312L46.8119 19.6518L46.9003 19.6724L46.9931 19.6931L47.0948 19.7136L47.1965 19.7342L47.3026 19.7548L47.4131 19.7753L47.528 19.796L47.6472 19.8165L47.7665 19.8331L47.8904 19.8536L48.0185 19.8701L48.1511 19.8865L48.2837 19.8989L48.4206 19.9112L48.5578 19.9236L48.6947 19.9318L48.8362 19.9401L48.9821 19.9482H49.1234L49.2693 19.9525H49.4152L49.5609 19.9482L49.7068 19.9401L49.8527 19.9318L49.9985 19.9153L50.1267 19.8947L50.246 19.8618L50.3521 19.8207L50.4449 19.7753L50.5245 19.7218L50.5996 19.6642L50.6614 19.6025L50.7188 19.5366L50.7631 19.4666L50.803 19.3966L50.8383 19.3224L50.8691 19.2524L50.8913 19.1783L50.9134 19.1083L50.9311 19.0383L50.9488 18.8943L50.9444 18.7666L50.9134 18.6513L50.856 18.5443L50.7809 18.4455L50.6837 18.3549L50.5686 18.2726L50.4406 18.1984L50.2991 18.1243L50.1399 18.0585L49.9719 17.9926L49.7952 17.9267L49.614 17.8608L49.424 17.7908L49.234 17.7208L49.0395 17.6467L48.8449 17.5685L48.6506 17.4821L48.4606 17.3873L48.2793 17.2886L48.1025 17.1731L47.9345 17.0538L47.7754 16.9179L47.6296 16.7656L47.5014 16.6009L47.3865 16.4239L47.2849 16.2262L47.2098 16.008L47.1523 15.7734L47.117 15.5181L47.108 15.2381L47.1257 14.9376L47.1478 14.7523L47.1744 14.5711L47.2098 14.3982L47.2451 14.2294L47.2937 14.0688L47.3423 13.9124L47.3998 13.7641L47.466 13.62L47.5368 13.48L47.6119 13.3483L47.7003 13.2206L47.7932 13.1013L47.8947 12.9859L48.0053 12.8789L48.1201 12.7759L48.2483 12.6772L48.3809 12.5866L48.5267 12.5001L48.6814 12.4218L48.8449 12.3478L49.0173 12.2778L49.1986 12.216L49.3886 12.1625L49.5919 12.1131L49.8085 12.0678L50.0339 12.0307L50.2681 11.9978L50.5157 11.969L50.7719 11.9484L51.0416 11.936L51.3244 11.9278L51.6206 11.9237H51.9874L52.1553 11.9278L52.3188 11.9319L52.4735 11.936L52.6194 11.9402L52.7609 11.9443L52.8934 11.9484L53.0216 11.9567L53.1409 11.9649L53.2558 11.969L53.3619 11.9772L53.4635 11.9855L53.5608 11.9937L53.6491 12.006L53.7375 12.0143L53.8171 12.0225L53.8967 12.0307L53.9674 12.039L54.0337 12.0514L54.0999 12.0596L54.1619 12.0678L54.2193 12.076L54.2724 12.0884L54.3209 12.0966L54.3696 12.1049L54.4181 12.1131L54.4624 12.1214L54.5022 12.1254L54.5419 12.1337L54.5817 12.1419L54.617 12.146L54.1088 14.2129V14.2129Z" fill="white"/>
<path d="M54.1088 14.2129L53.9674 14.2047L53.8347 14.1923L53.7111 14.1799L53.5873 14.1635L53.468 14.147L53.3443 14.1265L53.2161 14.1099L53.0834 14.0894L52.9421 14.0729L52.7873 14.0606L52.6149 14.0524L52.4294 14.0441H52.0006L51.7488 14.0565L51.4703 14.0729L51.2714 14.1018L51.0814 14.1388L50.9134 14.1923L50.7588 14.2541L50.6217 14.3241L50.5024 14.4023L50.4007 14.4929L50.3211 14.5876L50.2593 14.6864L50.2196 14.7935L50.2019 14.9047V15.0199L50.2283 15.1351L50.2814 15.2546L50.3521 15.378L50.4537 15.4975L50.5466 15.588L50.6527 15.6663L50.7631 15.7404L50.887 15.8063L51.0195 15.8681L51.1565 15.9257L51.3024 15.975L51.4526 16.0287L51.6073 16.078L51.7665 16.1233L51.9255 16.1728L52.0846 16.2221L52.2437 16.2757L52.4073 16.3333L52.5619 16.3951L52.7211 16.4609L52.8713 16.535L53.0172 16.6174L53.1586 16.7039L53.2955 16.8068L53.4193 16.9139L53.5386 17.0373L53.6491 17.1731L53.7465 17.3214L53.8304 17.4821L53.9055 17.6632L53.9629 17.8567L54.0073 18.0709L54.0381 18.3014L54.0514 18.5525L54.0425 18.8243L54.0204 19.1207L53.9896 19.3389L53.9453 19.5448L53.8922 19.7382L53.826 19.9236L53.7509 20.1006L53.6668 20.2652L53.574 20.4218L53.468 20.57L53.3575 20.7059L53.2381 20.8335L53.1144 20.9529L52.9819 21.0682L52.8448 21.1712L52.6988 21.2658L52.5531 21.3563L52.3984 21.4346L52.2393 21.5087L52.0802 21.5787L51.9167 21.6405L51.7488 21.6941L51.5852 21.7433L51.4129 21.7887L51.245 21.8258L51.0724 21.8587L50.9045 21.8875L50.7366 21.9122L50.5686 21.9287L50.4007 21.9452L50.2372 21.9575L50.0737 21.9657L49.919 21.9699H49.3444L49.1499 21.9657H48.9642L48.7875 21.9616L48.6152 21.9575L48.456 21.9535L48.3014 21.9492L48.1511 21.9411L48.0096 21.9328L47.8771 21.9287L47.7489 21.9205L47.6252 21.9081L47.5059 21.8999L47.3954 21.8875L47.2849 21.8752L47.1832 21.8628L47.0816 21.8505L46.9844 21.8341L46.8916 21.8176L46.7988 21.8011L46.7103 21.7846L46.6219 21.7682L46.538 21.7476L46.4539 21.727L46.37 21.7063L46.286 21.6816L46.2021 21.6611L46.1225 21.6363L46.0385 21.6076L45.9544 21.5828L45.8662 21.5541L46.317 19.5118L46.3567 19.5242L46.4054 19.5407L46.4583 19.5572L46.5157 19.5736L46.5821 19.5942L46.6528 19.6107L46.7324 19.6312L46.8119 19.6518L46.9003 19.6724L46.9931 19.6931L47.0948 19.7136L47.1965 19.7342L47.3026 19.7548L47.4131 19.7753L47.528 19.796L47.6472 19.8165L47.7665 19.8331L47.8904 19.8536L48.0185 19.8701L48.1511 19.8865L48.2837 19.8989L48.4206 19.9112L48.5578 19.9236L48.6947 19.9318L48.8362 19.9401L48.9821 19.9482H49.1234L49.2693 19.9525H49.4152L49.5609 19.9482L49.7068 19.9401L49.8527 19.9318L49.9985 19.9153L50.1267 19.8947L50.246 19.8618L50.3521 19.8207L50.4449 19.7753L50.5245 19.7218L50.5996 19.6642L50.6614 19.6025L50.7188 19.5366L50.7631 19.4666L50.803 19.3966L50.8383 19.3224L50.8691 19.2524L50.8913 19.1783L50.9134 19.1083L50.9311 19.0383L50.9488 18.8943L50.9444 18.7666L50.9134 18.6513L50.856 18.5443L50.7809 18.4455L50.6837 18.3549L50.5686 18.2726L50.4406 18.1984L50.2991 18.1243L50.1399 18.0585L49.9719 17.9926L49.7952 17.9267L49.614 17.8608L49.424 17.7908L49.234 17.7208L49.0395 17.6467L48.8449 17.5685L48.6506 17.4821L48.4606 17.3873L48.2793 17.2886L48.1025 17.1731L47.9345 17.0538L47.7754 16.9179L47.6296 16.7656L47.5014 16.6009L47.3865 16.4239L47.2849 16.2262L47.2098 16.008L47.1523 15.7734L47.117 15.5181L47.108 15.2381L47.1257 14.9376L47.1478 14.7523L47.1744 14.5711L47.2098 14.3982L47.2451 14.2294L47.2937 14.0688L47.3423 13.9124L47.3998 13.7641L47.466 13.62L47.5368 13.48L47.6119 13.3483L47.7003 13.2206L47.7932 13.1013L47.8947 12.9859L48.0053 12.8789L48.1201 12.7759L48.2483 12.6772L48.3809 12.5866L48.5267 12.5001L48.6814 12.4218L48.8449 12.3478L49.0173 12.2778L49.1986 12.216L49.3886 12.1625L49.5919 12.1131L49.8085 12.0678L50.0339 12.0307L50.2681 11.9978L50.5157 11.969L50.7719 11.9484L51.0416 11.936L51.3244 11.9278L51.6206 11.9237H51.9874L52.1553 11.9278L52.3188 11.9319L52.4735 11.936L52.6194 11.9402L52.7609 11.9443L52.8934 11.9484L53.0216 11.9567L53.1409 11.9649L53.2558 11.969L53.3619 11.9772L53.4635 11.9855L53.5608 11.9937L53.6491 12.006L53.7375 12.0143L53.8171 12.0225L53.8967 12.0307L53.9674 12.039L54.0337 12.0514L54.0999 12.0596L54.1619 12.0678L54.2193 12.076L54.2724 12.0884L54.3209 12.0966L54.3696 12.1049L54.4181 12.1131L54.4624 12.1214L54.5022 12.1254L54.5419 12.1337L54.5817 12.1419L54.617 12.146L54.1088 14.2129V14.2129Z" stroke="white" stroke-width="0.684965"/>
<path d="M15.1758 12.7883L15.1139 12.7554L15.0476 12.7265L14.9813 12.6936L14.915 12.6607L14.8487 12.6319L14.778 12.5989L14.7028 12.5701L14.6277 12.5371L14.5526 12.5083L14.473 12.4795L14.3935 12.4507L14.3139 12.4218L14.23 12.393L14.146 12.3683L14.0576 12.3436L13.9692 12.3148L13.8764 12.2941L13.7836 12.2695L13.6863 12.2489L13.5891 12.2283L13.4875 12.2119L13.3858 12.1912L13.2841 12.179L13.1737 12.1624L13.0675 12.1501L12.9571 12.1419L12.8422 12.1295L12.7273 12.1254L12.608 12.1171H12.1173L11.9936 12.1213L11.8654 12.1254L11.7328 12.1378L11.6047 12.1501L11.4676 12.1666L11.3351 12.1871L11.1981 12.2119L11.061 12.2448L10.924 12.286L10.7871 12.3313L10.6456 12.3848L10.5086 12.4466L10.3716 12.5124L10.2389 12.5907L10.102 12.6812L9.96944 12.7759L9.84124 12.883L9.71305 13.0024L9.58492 13.1341L9.46121 13.2741L9.34177 13.4306L9.22689 13.5994L9.11201 13.7805L9.00155 13.9741L8.89543 14.1841L8.79814 14.4105L8.70093 14.6493L8.61254 14.9046L8.52416 15.1804L8.44909 15.4686L8.37388 15.7774L8.30757 16.0945L8.26342 16.4114L8.24576 16.7244L8.2501 17.0291L8.2855 17.3296L8.3429 17.6179L8.43136 17.8978L8.54623 18.1614L8.69209 18.4125L8.86452 18.643L9.06779 18.8572L9.30203 19.0507L9.56718 19.2194L9.86332 19.3636L10.1948 19.483L10.5616 19.5695L10.619 19.5818L10.6898 19.59L10.7605 19.6025L10.8401 19.6106L10.9284 19.623L11.0213 19.6312L11.1141 19.6395L11.2157 19.6436L11.3219 19.6517L11.4323 19.656H11.7814L11.9008 19.6517L12.0245 19.6436L12.1483 19.6312L12.2764 19.6188L12.4002 19.6025L12.5284 19.5818L12.6521 19.5571L12.7803 19.5283L12.904 19.4995L13.0278 19.4623L13.1515 19.4212L13.2709 19.3759L13.3858 19.3223L13.5007 19.2647L13.6112 19.2031L13.7173 19.1372L13.8189 19.063L13.9161 18.9848L14.0089 18.8983L13.5582 21.3563L13.5316 21.3769L13.5007 21.3976L13.4697 21.4223L13.4344 21.4469L13.3946 21.4757L13.3549 21.5046L13.315 21.5333L13.2665 21.5622L13.2134 21.5952L13.1559 21.624L13.0941 21.657L13.0278 21.6898L12.9527 21.7227L12.8687 21.7516L12.7803 21.7805L12.6831 21.8092L12.5814 21.8381L12.4665 21.8669L12.3428 21.8916L12.2101 21.9163L12.0687 21.9369L11.9185 21.9534L11.7549 21.9699L11.5826 21.9862L11.3925 21.9946L11.1937 22.0027L10.9859 22.0069H10.5218L10.2699 21.9986L10.0048 21.9862L9.72188 21.9699L9.49646 21.9534L9.27112 21.9286L9.04571 21.8875L8.82029 21.8381L8.59054 21.7763L8.36505 21.7063L8.14405 21.624L7.91864 21.5252L7.70205 21.4223L7.48554 21.3028L7.27779 21.1752L7.07453 21.0311L6.87561 20.8788L6.68559 20.714L6.49992 20.5411L6.32756 20.3518L6.15962 20.1541L6.00493 19.94L5.86356 19.7176L5.73095 19.483L5.60716 19.2359L5.50119 18.9765L5.40832 18.7048L5.32876 18.4248L5.26687 18.1284L5.21823 17.8196L5.18732 17.5026L5.17407 17.1691L5.1829 16.8273L5.20498 16.4692L5.24921 16.1027L5.31544 15.7198L5.39058 15.3369L5.47897 14.9663L5.57184 14.6081L5.67347 14.2663L5.77952 13.9329L5.89889 13.6159L6.02701 13.3112L6.15962 13.0189L6.30548 12.7389L6.45576 12.4712L6.61928 12.216L6.78722 11.9731L6.96841 11.7425L7.15408 11.5242L7.35293 11.3184L7.56068 11.1249L7.77726 10.9397L8.00268 10.7708L8.23685 10.6143L8.47993 10.4661L8.73632 10.3344L9.00155 10.2108L9.27546 10.0997L9.55835 9.99678L9.85449 9.91026L10.1595 9.83211L10.4777 9.76622L10.8003 9.71268L11.1362 9.67148L11.4854 9.63857L11.8433 9.618L12.2101 9.60559H12.3692L12.5284 9.61389L12.6831 9.618L12.8377 9.63034L12.988 9.64268L13.1383 9.65914L13.2841 9.67559L13.43 9.69211L13.5714 9.71268L13.7129 9.73736L13.8454 9.75793L13.978 9.78268L14.1106 9.81147L14.2344 9.83615L14.3537 9.86501L14.473 9.88976L14.5836 9.91856L14.694 9.94735L14.8001 9.97203L14.8973 10.0009L14.9946 10.0256L15.083 10.0503L15.1669 10.075L15.2465 10.0997L15.3172 10.1203L15.3835 10.1409L15.4454 10.1615L15.5028 10.1779L15.5514 10.1903L15.5912 10.2026L15.6266 10.2108L15.6576 10.2191L15.1758 12.7883Z" fill="white"/>
<path d="M15.1758 12.7883L15.1139 12.7554L15.0476 12.7265L14.9813 12.6936L14.915 12.6607L14.8487 12.6319L14.778 12.5989L14.7028 12.5701L14.6277 12.5371L14.5526 12.5083L14.473 12.4795L14.3935 12.4507L14.3139 12.4218L14.23 12.393L14.146 12.3683L14.0576 12.3436L13.9692 12.3148L13.8764 12.2941L13.7836 12.2695L13.6863 12.2489L13.5891 12.2283L13.4875 12.2119L13.3858 12.1912L13.2841 12.179L13.1737 12.1624L13.0675 12.1501L12.9571 12.1419L12.8422 12.1295L12.7273 12.1254L12.608 12.1171H12.1173L11.9936 12.1213L11.8654 12.1254L11.7328 12.1378L11.6047 12.1501L11.4676 12.1666L11.3351 12.1871L11.1981 12.2119L11.061 12.2448L10.924 12.286L10.7871 12.3313L10.6456 12.3848L10.5086 12.4466L10.3716 12.5124L10.2389 12.5907L10.102 12.6812L9.96944 12.7759L9.84124 12.883L9.71305 13.0024L9.58492 13.1341L9.46121 13.2741L9.34177 13.4306L9.22689 13.5994L9.11201 13.7805L9.00155 13.9741L8.89543 14.1841L8.79814 14.4105L8.70093 14.6493L8.61254 14.9046L8.52416 15.1804L8.44909 15.4686L8.37388 15.7774L8.30757 16.0945L8.26342 16.4114L8.24576 16.7244L8.2501 17.0291L8.2855 17.3296L8.3429 17.6179L8.43136 17.8978L8.54623 18.1614L8.69209 18.4125L8.86452 18.643L9.06779 18.8572L9.30203 19.0507L9.56718 19.2194L9.86332 19.3636L10.1948 19.483L10.5616 19.5695L10.619 19.5818L10.6898 19.59L10.7605 19.6025L10.8401 19.6106L10.9284 19.623L11.0213 19.6312L11.1141 19.6395L11.2157 19.6436L11.3219 19.6517L11.4323 19.656H11.7814L11.9008 19.6517L12.0245 19.6436L12.1483 19.6312L12.2764 19.6188L12.4002 19.6025L12.5284 19.5818L12.6521 19.5571L12.7803 19.5283L12.904 19.4995L13.0278 19.4623L13.1515 19.4212L13.2709 19.3759L13.3858 19.3223L13.5007 19.2647L13.6112 19.2031L13.7173 19.1372L13.8189 19.063L13.9161 18.9848L14.0089 18.8983L13.5582 21.3563L13.5316 21.3769L13.5007 21.3976L13.4697 21.4223L13.4344 21.4469L13.3946 21.4757L13.3549 21.5046L13.315 21.5333L13.2665 21.5622L13.2134 21.5952L13.1559 21.624L13.0941 21.657L13.0278 21.6898L12.9527 21.7227L12.8687 21.7516L12.7803 21.7805L12.6831 21.8092L12.5814 21.8381L12.4665 21.8669L12.3428 21.8916L12.2101 21.9163L12.0687 21.9369L11.9185 21.9534L11.7549 21.9699L11.5826 21.9862L11.3925 21.9946L11.1937 22.0027L10.9859 22.0069H10.5218L10.2699 21.9986L10.0048 21.9862L9.72188 21.9699L9.49646 21.9534L9.27112 21.9286L9.04571 21.8875L8.82029 21.8381L8.59054 21.7763L8.36505 21.7063L8.14405 21.624L7.91864 21.5252L7.70205 21.4223L7.48554 21.3028L7.27779 21.1752L7.07453 21.0311L6.87561 20.8788L6.68559 20.714L6.49992 20.5411L6.32756 20.3518L6.15962 20.1541L6.00493 19.94L5.86356 19.7176L5.73095 19.483L5.60716 19.2359L5.50119 18.9765L5.40832 18.7048L5.32876 18.4248L5.26687 18.1284L5.21823 17.8196L5.18732 17.5026L5.17407 17.1691L5.1829 16.8273L5.20498 16.4692L5.24921 16.1027L5.31544 15.7198L5.39058 15.3369L5.47897 14.9663L5.57184 14.6081L5.67347 14.2663L5.77952 13.9329L5.89889 13.6159L6.02701 13.3112L6.15962 13.0189L6.30548 12.7389L6.45576 12.4712L6.61928 12.216L6.78722 11.9731L6.96841 11.7425L7.15408 11.5242L7.35293 11.3184L7.56068 11.1249L7.77726 10.9397L8.00268 10.7708L8.23685 10.6143L8.47993 10.4661L8.73632 10.3344L9.00155 10.2108L9.27546 10.0997L9.55835 9.99678L9.85449 9.91026L10.1595 9.83211L10.4777 9.76622L10.8003 9.71268L11.1362 9.67148L11.4854 9.63857L11.8433 9.618L12.2101 9.60559H12.3692L12.5284 9.61389L12.6831 9.618L12.8377 9.63034L12.988 9.64268L13.1383 9.65914L13.2841 9.67559L13.43 9.69211L13.5714 9.71268L13.7129 9.73736L13.8454 9.75793L13.978 9.78268L14.1106 9.81147L14.2344 9.83615L14.3537 9.86501L14.473 9.88976L14.5836 9.91856L14.694 9.94735L14.8001 9.97203L14.8973 10.0009L14.9946 10.0256L15.083 10.0503L15.1669 10.075L15.2465 10.0997L15.3172 10.1203L15.3835 10.1409L15.4454 10.1615L15.5028 10.1779L15.5514 10.1903L15.5912 10.2026L15.6266 10.2108L15.6576 10.2191L15.1758 12.7883Z" stroke="white" stroke-width="0.684965"/>
<path d="M18.3226 21.9164L20.033 12.3148H16.7934L15.0874 21.9164H18.3226V21.9164Z" fill="white"/>
<path d="M18.3226 21.9164L20.033 12.3148H16.7934L15.0874 21.9164H18.3226V21.9164Z" stroke="white" stroke-width="0.684965"/>
<path d="M20.3601 21.9164H23.6571L24.8593 16.0821L24.9301 15.9216L25.014 15.7733L25.1024 15.6374L25.1996 15.5181L25.3057 15.4028L25.4161 15.304L25.5311 15.2134L25.6505 15.1351L25.7698 15.0611L25.8891 14.9993L26.0128 14.9458L26.1366 14.8964L26.2559 14.8552L26.3709 14.8222L26.4857 14.7934L26.5963 14.7687L26.6448 14.7605H26.7686L26.8437 14.7687L26.9189 14.7769L26.994 14.7893L27.0736 14.8017L27.1487 14.8181L27.2239 14.8346L27.2945 14.8511L27.3564 14.8634L27.4139 14.8799L27.458 14.8922L27.4934 14.9005L27.5155 14.9047L27.5244 14.9087L28.395 12.1172L28.2404 12.1131L28.0945 12.109H27.9443L27.8028 12.1131L27.6614 12.1172L27.5244 12.1296L27.3918 12.1419L27.2636 12.1584L27.1354 12.179L27.0073 12.1996L26.8879 12.2284L26.7686 12.2572L26.6537 12.2901L26.5388 12.323L26.4283 12.3642L26.3178 12.4055L26.2162 12.4507L26.11 12.496L26.0128 12.5495L25.9112 12.603L25.8184 12.6607L25.7256 12.7183L25.6327 12.7842L25.5443 12.85L25.4604 12.92L25.3764 12.9901L25.2924 13.0642L25.2129 13.1466L25.1377 13.2248L25.0627 13.3112L24.9875 13.3977L24.9167 13.4882L25.0361 12.2037H22.1898L20.3601 21.9164V21.9164Z" fill="white"/>
<path d="M20.3601 21.9164H23.6571L24.8593 16.0821L24.9301 15.9216L25.014 15.7733L25.1024 15.6374L25.1996 15.5181L25.3057 15.4028L25.4161 15.304L25.5311 15.2134L25.6505 15.1351L25.7698 15.0611L25.8891 14.9993L26.0128 14.9458L26.1366 14.8964L26.2559 14.8552L26.3709 14.8222L26.4857 14.7934L26.5963 14.7687L26.6448 14.7605H26.7686L26.8437 14.7687L26.9189 14.7769L26.994 14.7893L27.0736 14.8017L27.1487 14.8181L27.2239 14.8346L27.2945 14.8511L27.3564 14.8634L27.4139 14.8799L27.458 14.8922L27.4934 14.9005L27.5155 14.9047L27.5244 14.9087L28.395 12.1172L28.2404 12.1131L28.0945 12.109H27.9443L27.8028 12.1131L27.6614 12.1172L27.5244 12.1296L27.3918 12.1419L27.2636 12.1584L27.1354 12.179L27.0073 12.1996L26.8879 12.2284L26.7686 12.2572L26.6537 12.2901L26.5388 12.323L26.4283 12.3642L26.3178 12.4055L26.2162 12.4507L26.11 12.496L26.0128 12.5495L25.9112 12.603L25.8184 12.6607L25.7256 12.7183L25.6327 12.7842L25.5443 12.85L25.4604 12.92L25.3764 12.9901L25.2924 13.0642L25.2129 13.1466L25.1377 13.2248L25.0627 13.3112L24.9875 13.3977L24.9167 13.4882L25.0361 12.2037H22.1898L20.3601 21.9164V21.9164Z" stroke="white" stroke-width="0.684965"/>
<path d="M44.6063 21.941H41.4286L41.6673 20.5205L41.5921 20.5988L41.517 20.677L41.4463 20.7553L41.3755 20.8294L41.3004 20.9034L41.2298 20.9734L41.1545 21.0393L41.0839 21.1053L41.0088 21.1711L40.9291 21.2328L40.8496 21.2947L40.7657 21.3482L40.6816 21.4057L40.5933 21.4593L40.5005 21.5087L40.4032 21.554L40.3016 21.5993L40.1911 21.6446L40.0806 21.6816L39.9613 21.7187L39.8375 21.7557L39.7049 21.7846L39.5635 21.8135L39.4176 21.8422L39.2629 21.8628L39.0994 21.8835L38.927 21.8999L38.7504 21.9164L38.5558 21.9246L38.357 21.9328L38.1448 21.941H37.9239L37.7691 21.9369L37.6144 21.9205L37.4598 21.8957L37.3139 21.8628L37.168 21.8216L37.0222 21.7722L36.8852 21.7105L36.7481 21.6405L36.6155 21.5663L36.4874 21.4799L36.3637 21.3852L36.2488 21.2863L36.1339 21.1753L36.0234 21.0599L35.9217 20.9364L35.8245 20.8047L35.736 20.6646L35.6478 20.5205L35.5726 20.3681L35.4973 20.2117L35.4355 20.0471L35.378 19.8741L35.325 19.6971L35.2852 19.516L35.2498 19.3266L35.2234 19.133L35.2057 18.9354L35.1968 18.7295V18.5195L35.2057 18.3054L35.2278 18.0872L35.2544 17.8648L36.2134 12.286H39.3911L38.5514 17.2226L38.516 17.4614L38.5027 17.6796L38.5073 17.8855L38.5337 18.0749L38.5734 18.2437L38.6265 18.4001L38.6973 18.5401L38.7812 18.6637L38.874 18.7749L38.9801 18.8654L39.0906 18.9437L39.2144 19.0095L39.3425 19.0589L39.4752 19.0919L39.6121 19.1124L39.7491 19.1207L39.9214 19.1166L40.1027 19.0959L40.2883 19.0672L40.474 19.0219L40.664 18.9643L40.8496 18.8943L41.0353 18.8037L41.2121 18.7007L41.3844 18.5773L41.5435 18.4371L41.6938 18.2766L41.8263 18.0996L41.9457 17.8978L42.043 17.6755L42.1224 17.4325L42.1799 17.1692L42.9888 12.3148H46.1665L44.6063 21.941V21.941Z" fill="white"/>
<path d="M44.6063 21.941H41.4286L41.6673 20.5205L41.5921 20.5988L41.517 20.677L41.4463 20.7553L41.3755 20.8294L41.3004 20.9034L41.2298 20.9734L41.1545 21.0393L41.0839 21.1053L41.0088 21.1711L40.9291 21.2328L40.8496 21.2947L40.7657 21.3482L40.6816 21.4057L40.5933 21.4593L40.5005 21.5087L40.4032 21.554L40.3016 21.5993L40.1911 21.6446L40.0806 21.6816L39.9613 21.7187L39.8375 21.7557L39.7049 21.7846L39.5635 21.8135L39.4176 21.8422L39.2629 21.8628L39.0994 21.8835L38.927 21.8999L38.7504 21.9164L38.5558 21.9246L38.357 21.9328L38.1448 21.941H37.9239L37.7691 21.9369L37.6144 21.9205L37.4598 21.8957L37.3139 21.8628L37.168 21.8216L37.0222 21.7722L36.8852 21.7105L36.7481 21.6405L36.6155 21.5663L36.4874 21.4799L36.3637 21.3852L36.2488 21.2863L36.1339 21.1753L36.0234 21.0599L35.9217 20.9364L35.8245 20.8047L35.736 20.6646L35.6478 20.5205L35.5726 20.3681L35.4973 20.2117L35.4355 20.0471L35.378 19.8741L35.325 19.6971L35.2852 19.516L35.2498 19.3266L35.2234 19.133L35.2057 18.9354L35.1968 18.7295V18.5195L35.2057 18.3054L35.2278 18.0872L35.2544 17.8648L36.2134 12.286H39.3911L38.5514 17.2226L38.516 17.4614L38.5027 17.6796L38.5073 17.8855L38.5337 18.0749L38.5734 18.2437L38.6265 18.4001L38.6973 18.5401L38.7812 18.6637L38.874 18.7749L38.9801 18.8654L39.0906 18.9437L39.2144 19.0095L39.3425 19.0589L39.4752 19.0919L39.6121 19.1124L39.7491 19.1207L39.9214 19.1166L40.1027 19.0959L40.2883 19.0672L40.474 19.0219L40.664 18.9643L40.8496 18.8943L41.0353 18.8037L41.2121 18.7007L41.3844 18.5773L41.5435 18.4371L41.6938 18.2766L41.8263 18.0996L41.9457 17.8978L42.043 17.6755L42.1224 17.4325L42.1799 17.1692L42.9888 12.3148H46.1665L44.6063 21.941V21.941Z" stroke="white" stroke-width="0.684965"/>
<path d="M27.467 21.9164H30.6978L31.9264 16.0821L32.0015 15.9216L32.0812 15.7733L32.174 15.6374L32.2712 15.5181L32.3771 15.4028L32.4877 15.304L32.6027 15.2134L32.7176 15.1351L32.8413 15.0611L32.9607 14.9993L33.0844 14.9458L33.2082 14.8964L33.3276 14.8552L33.4423 14.8222L33.5573 14.7934L33.6679 14.7687L33.7164 14.7605H33.8402L33.9153 14.7687L33.9904 14.7769L34.0656 14.7893L34.1451 14.8017L34.2202 14.8181L34.2953 14.8346L34.3661 14.8511L34.4281 14.8634L34.4853 14.8799L34.5297 14.8922L34.5651 14.9005L34.5871 14.9047L34.5959 14.9087L35.4666 12.1172L35.3119 12.1131L35.1661 12.109H35.0158L34.8744 12.1131L34.733 12.1172L34.5959 12.1296L34.4633 12.1419L34.3307 12.1584L34.2025 12.179L34.0789 12.1996L33.9595 12.2284L33.8402 12.2572L33.7208 12.2901L33.6104 12.323L33.4955 12.3642L33.3894 12.4055L33.2833 12.4507L33.1817 12.496L33.08 12.5495L32.9827 12.603L32.8855 12.6607L32.7927 12.7183L32.7043 12.7842L32.6159 12.85L32.5274 12.92L32.4435 12.9901L32.364 13.0642L32.2845 13.1466L32.2094 13.2248L32.1341 13.3112L32.0589 13.3977L31.9884 13.4882L32.1076 12.2037H29.2924L27.467 21.9164V21.9164Z" fill="white"/>
<path d="M27.467 21.9164H30.6978L31.9264 16.0821L32.0015 15.9216L32.0812 15.7733L32.174 15.6374L32.2712 15.5181L32.3771 15.4028L32.4877 15.304L32.6027 15.2134L32.7176 15.1351L32.8413 15.0611L32.9607 14.9993L33.0844 14.9458L33.2082 14.8964L33.3276 14.8552L33.4423 14.8222L33.5573 14.7934L33.6679 14.7687L33.7164 14.7605H33.8402L33.9153 14.7687L33.9904 14.7769L34.0656 14.7893L34.1451 14.8017L34.2202 14.8181L34.2953 14.8346L34.3661 14.8511L34.4281 14.8634L34.4853 14.8799L34.5297 14.8922L34.5651 14.9005L34.5871 14.9047L34.5959 14.9087L35.4666 12.1172L35.3119 12.1131L35.1661 12.109H35.0158L34.8744 12.1131L34.733 12.1172L34.5959 12.1296L34.4633 12.1419L34.3307 12.1584L34.2025 12.179L34.0789 12.1996L33.9595 12.2284L33.8402 12.2572L33.7208 12.2901L33.6104 12.323L33.4955 12.3642L33.3894 12.4055L33.2833 12.4507L33.1817 12.496L33.08 12.5495L32.9827 12.603L32.8855 12.6607L32.7927 12.7183L32.7043 12.7842L32.6159 12.85L32.5274 12.92L32.4435 12.9901L32.364 13.0642L32.2845 13.1466L32.2094 13.2248L32.1341 13.3112L32.0589 13.3977L31.9884 13.4882L32.1076 12.2037H29.2924L27.467 21.9164V21.9164Z" stroke="white" stroke-width="0.684965"/>
<path d="M22.1899 12.2036H25.0671" stroke="white" stroke-width="0.684965"/>
<path d="M29.2922 12.2036H32.1385" stroke="white" stroke-width="0.684965"/>
</g>
<defs>
<clipPath id="clip0_1514_292">
<rect width="59" height="33" fill="white"/>
</clipPath>
</defs>
</svg>
