<svg width="80" height="28" viewBox="0 0 80 28" fill="none" xmlns="http://www.w3.org/2000/svg">
<path d="M52.3021 0.726653C52.0776 0.72676 51.8553 0.77334 51.648 0.863731C51.4407 0.954122 51.2523 1.08655 51.0937 1.25345C50.7803 1.58269 50.5922 2.04775 50.5922 2.52516V24.2332C50.5922 24.7106 50.7725 25.1674 51.0937 25.5049C51.2524 25.6718 51.4408 25.8042 51.6482 25.8945C51.8556 25.9848 52.0779 26.0313 52.3025 26.0313C52.527 26.0313 52.7493 25.9848 52.9567 25.8945C53.1641 25.8042 53.3525 25.6718 53.5112 25.5049C53.8246 25.1756 54.0127 24.7106 54.0127 24.2332V2.52434C54.0127 2.04693 53.8324 1.5901 53.5112 1.25262C53.3525 1.08563 53.164 0.953144 52.9566 0.86275C52.7491 0.772356 52.5267 0.725828 52.3021 0.72583V0.726653ZM26.2534 8.37833C26.2534 7.38566 25.4879 6.58065 24.5452 6.58065C23.6025 6.58065 22.8369 7.38566 22.8369 8.37833V24.2315C22.8369 25.2242 23.6025 26.0292 24.5452 26.0292C25.4879 26.0292 26.2534 25.2242 26.2534 24.2315V8.37833Z" fill="#FCFDFF"/>
<path d="M26.7362 2.52761C26.7251 3.13071 26.4893 3.70519 26.0795 4.12775C25.6699 4.54983 25.119 4.78628 24.5452 4.78628C23.9714 4.78628 23.4205 4.54983 23.0109 4.12775C22.6011 3.70519 22.3654 3.13071 22.3542 2.52761C22.354 1.91647 22.5848 1.33023 22.996 0.897846C23.1992 0.683789 23.4406 0.513952 23.7064 0.398068C23.9721 0.282185 24.2571 0.222534 24.5448 0.222534C24.8326 0.222534 25.1175 0.282185 25.3833 0.398068C25.6491 0.513952 25.8904 0.683789 26.0936 0.897846C26.5048 1.33023 26.7356 1.91647 26.7354 2.52761H26.7362Z" fill="#00AEEF"/>
<path d="M47.5032 12.3178C45.8608 8.41132 41.9749 5.65059 37.5413 6.128C36.0465 6.29397 34.6086 6.82138 33.3403 7.66887C32.0716 8.51693 31.0069 9.66183 30.2294 11.014C29.4516 12.3669 28.9821 13.8904 28.8573 15.4654C28.732 17.0409 28.9561 18.6262 29.5101 20.0946C30.064 21.5635 30.9337 22.8779 32.0513 23.9353C33.1686 24.9918 34.5034 25.7626 35.9513 26.1873C37.399 26.6119 38.9207 26.6783 40.397 26.3812C41.8732 26.0841 43.2639 25.4318 44.4597 24.4752C44.6609 24.3132 44.825 24.1059 44.9401 23.8686C45.0552 23.6315 45.1187 23.3698 45.125 23.1031C45.1379 22.6302 44.9716 22.1712 44.6626 21.8269C44.3537 21.4826 43.9273 21.2812 43.4771 21.2667C43.0902 21.2537 42.7107 21.3804 42.402 21.6256C41.2184 22.5857 39.7471 23.0697 38.2536 22.9903C37.0405 22.9253 35.8709 22.4953 34.884 21.7516C33.8929 21.0088 33.1239 19.9846 32.6672 18.799C32.605 18.6392 32.6012 18.4608 32.6566 18.2982C32.712 18.1356 32.8227 18.0003 32.9673 17.9183C33.0632 17.8642 33.1704 17.8359 33.2792 17.836H45.1469C45.7187 17.8385 46.2783 17.6622 46.7544 17.3296C47.2305 16.997 47.6017 16.5232 47.8206 15.9683C47.9665 15.6 48.0418 15.2051 48.0424 14.8061C48.0184 13.9498 47.8391 13.1061 47.5142 12.3203L47.5032 12.3178ZM38.5505 9.64106C39.8211 9.64138 41.0623 10.0422 42.1136 10.7918C43.1655 11.5422 43.979 12.6068 44.4487 13.848C44.4884 13.9539 44.5032 14.0682 44.4918 14.1814C44.4801 14.2944 44.4422 14.4028 44.3816 14.497C44.321 14.5912 44.2394 14.6685 44.1439 14.7221C44.0485 14.7759 43.9419 14.8042 43.8336 14.8045H33.2667C33.1583 14.8046 33.0517 14.7763 32.9564 14.7221C32.8608 14.6678 32.7793 14.5904 32.7182 14.4974C32.657 14.4044 32.6194 14.295 32.6085 14.1814C32.5971 14.0682 32.6119 13.9539 32.6516 13.848C33.1213 12.6068 33.9348 11.5422 34.9867 10.7918C36.0397 10.046 37.2798 9.64549 38.5498 9.64106H38.5505ZM66.3082 22.9969C65.0901 22.9972 63.8977 22.6289 62.8737 21.9359C61.8486 21.2402 61.0332 20.2524 60.5228 19.088C60.0178 17.922 59.8424 16.6282 60.0174 15.3605C60.1925 14.0929 60.7106 12.9047 61.5102 11.9375L58.9243 9.61883C58.0871 10.6402 57.4506 11.8255 57.0515 13.1064C56.6513 14.3873 56.4956 15.7386 56.5931 17.0828C56.6902 18.427 57.0397 19.7382 57.6118 20.9408C58.1918 22.1428 58.992 23.2127 59.9665 24.0892C60.9405 24.9655 62.0696 25.6312 63.289 26.0482C64.508 26.4652 65.7935 26.6246 67.0714 26.5174C68.3497 26.4102 69.595 26.0382 70.7356 25.4226C71.8768 24.8077 72.8911 23.9621 73.7203 22.9344L71.1344 20.6165C70.5394 21.3623 69.7957 21.962 68.956 22.373C68.1169 22.7843 67.202 22.997 66.2761 22.9961L66.3082 22.9969Z" fill="#FCFDFF"/>
<path d="M66.3081 6.06702C64.91 6.06522 63.5279 6.38111 62.2569 6.99303C60.9849 7.6051 59.8537 8.49852 58.9407 9.61218L61.5187 11.9309C62.6168 10.6016 64.1709 9.78243 65.8418 9.65213C67.5127 9.52183 69.1648 10.091 70.4377 11.2354C71.711 12.3817 72.5022 14.0094 72.6397 15.765C72.7763 17.5208 72.2474 19.2623 71.1681 20.6106L73.7461 22.9285C74.9457 21.4365 75.7151 19.6158 75.9637 17.6804C76.2119 15.7444 75.9287 13.7743 75.1472 12.0017C74.366 10.2299 73.1189 8.72967 71.5528 7.67786C69.9851 6.62995 68.1663 6.07133 66.3081 6.06702V6.06702Z" fill="#00AEEF"/>
<path d="M19.6868 21.7063C19.3922 21.4381 19.0192 21.2838 18.6297 21.2689C18.2401 21.2541 17.8574 21.3797 17.5452 21.6248C16.6055 22.3802 15.4833 22.8444 14.3055 22.9649C13.1278 23.0853 11.9414 22.8572 10.8806 22.3064C9.81972 21.7546 8.92617 20.9032 8.30021 19.8477C7.67436 18.7911 7.34174 17.572 7.3398 16.3276C7.33786 15.0833 7.66668 13.863 8.28924 12.8043C8.91131 11.7464 9.80231 10.892 10.8618 10.3374C11.9208 9.78232 13.1067 9.54986 14.285 9.66638C15.4633 9.78291 16.587 10.2438 17.5287 10.9967C17.8374 11.2466 18.2184 11.3776 18.6079 11.3677C18.9975 11.3578 19.372 11.2077 19.6688 10.9424C19.8608 10.7696 20.0136 10.5556 20.1154 10.3144C20.2173 10.0732 20.269 9.80981 20.2643 9.54477C20.2596 9.27973 20.1969 9.01962 20.0841 8.78339C19.9712 8.54715 19.8083 8.33891 19.61 8.17757C18.1664 7.01677 16.4421 6.30391 14.6325 6.11979C12.8223 5.93503 10.999 6.28722 9.3698 7.13636C7.74057 7.9855 6.37069 9.29755 5.41576 10.9235C4.45939 12.5496 3.95435 14.4239 3.95753 16.3353C3.96072 18.2467 4.47201 20.1191 5.43378 21.7417C6.3953 23.3626 7.76964 24.6683 9.40119 25.511C11.0327 26.3537 12.8563 26.6998 14.6654 26.51C16.4742 26.3195 18.1961 25.6006 19.6359 24.4349C19.8315 24.2737 19.9906 24.0688 20.1016 23.8351C20.2126 23.6013 20.2728 23.3445 20.2776 23.0834C20.2826 22.8222 20.2323 22.5632 20.1302 22.325C20.0282 22.0869 19.877 21.8755 19.6876 21.7063H19.6868Z" fill="#FCFDFF"/>
</svg>
