<svg width="60" height="28" viewBox="0 0 60 28" fill="none" xmlns="http://www.w3.org/2000/svg">
<g clip-path="url(#clip0_1515_398)">
<path d="M12.3669 8.57719C12.9442 8.38709 13.5599 8.28571 14.1988 8.28571C16.9955 8.28571 19.3304 10.2475 19.864 12.8556L23.8281 12.0572C22.9199 7.6267 18.9532 4.29114 14.1988 4.29114C13.1084 4.29114 12.0641 4.46603 11.084 4.79046L12.3669 8.57719Z" fill="#FFCB05"/>
<path d="M7.68948 21.2655L10.3707 18.2721C9.17506 17.2253 8.42072 15.6969 8.42072 13.9937C8.42072 12.2929 9.17506 10.7646 10.3707 9.72029L7.68948 6.72437C5.65739 8.50367 4.37451 11.1017 4.37451 13.9937C4.37451 16.8882 5.65739 19.4862 7.68948 21.2655" fill="#00A4E0"/>
<path d="M19.864 15.1393C19.3278 17.7449 16.9955 19.7041 14.2014 19.7041C13.5599 19.7041 12.9416 19.6028 12.3669 19.4101L11.084 23.2019C12.0641 23.5238 13.1109 23.6987 14.2014 23.6987C18.9506 23.6987 22.9147 20.3682 23.8281 15.9428L19.864 15.1393Z" fill="#EF4123"/>
<path d="M27.2945 18.3963C27.1636 18.1885 26.9892 17.8564 26.8814 17.6106C26.2528 16.1709 26.2246 14.6805 26.7531 13.251C27.3356 11.6821 28.4491 10.4832 29.8885 9.86983C31.6974 9.10184 33.6961 9.25138 35.4305 10.2678C36.5313 10.8913 37.3112 11.8544 37.9039 13.2181C37.9783 13.393 38.0451 13.578 38.1118 13.7377L27.2945 18.3963ZM30.9071 12.1839C29.6217 12.7289 28.9597 13.9202 29.0982 15.3142L34.5377 13.0001C33.6012 11.9153 32.385 11.5554 30.9071 12.1839V12.1839ZM35.215 17.2177C35.2124 17.2177 35.2124 17.2202 35.2124 17.2202L35.0996 17.1442C34.7737 17.6638 34.2682 18.0871 33.6294 18.3608C32.4132 18.883 31.2868 18.7486 30.476 18.0465L30.4016 18.1581C30.4016 18.1581 30.4016 18.1555 30.3991 18.1555L29.0187 20.1959C29.3625 20.4316 29.7294 20.6293 30.1143 20.789C31.6383 21.415 33.1983 21.3846 34.7352 20.7256C35.8462 20.2491 36.7186 19.5242 37.3138 18.6041L35.215 17.2177ZM41.8911 6.86884V18.2087L43.6769 18.9235L42.6634 21.2604L40.6929 20.4494C40.2516 20.2593 39.9489 19.9703 39.7231 19.6433C39.505 19.3113 39.3433 18.8525 39.3433 18.2392V6.86884H41.8911ZM46.5146 15.3218C46.5146 14.3561 46.9483 13.4893 47.6307 12.9012L45.7988 10.8837C44.557 11.9685 43.7744 13.5526 43.7744 15.3167C43.7718 17.0834 44.5544 18.67 45.7937 19.7549L47.6231 17.7373C46.9431 17.1467 46.5146 16.285 46.5146 15.3218V15.3218ZM49.768 18.5382C49.4088 18.5382 49.0599 18.4774 48.7366 18.371L47.8617 20.9385C48.4595 21.1362 49.0984 21.2452 49.7655 21.2452C52.6648 21.2478 55.0843 19.215 55.6462 16.5156L52.9573 15.9732C52.6519 17.4408 51.3408 18.5408 49.768 18.5382V18.5382ZM49.7757 9.39839C49.1112 9.39839 48.4723 9.50485 47.8745 9.70001L48.7417 12.2701C49.0676 12.1637 49.414 12.1054 49.7732 12.1054C51.3485 12.1079 52.6622 13.213 52.9598 14.6831L55.6488 14.1457C55.0971 11.4413 52.6776 9.40093 49.7757 9.39839V9.39839Z" fill="white"/>
</g>
<defs>
<clipPath id="clip0_1515_398">
<rect width="60" height="28" fill="white"/>
</clipPath>
</defs>
</svg>
