<svg width="50" height="40" viewBox="0 0 50 40" fill="none" xmlns="http://www.w3.org/2000/svg">
<g clip-path="url(#clip0_1517_188)">
<path d="M49.0149 39.4576V39.5604H49.1081C49.1256 39.5607 49.1429 39.5562 49.1581 39.5473C49.1642 39.5429 49.1691 39.537 49.1724 39.5301C49.1756 39.5233 49.1772 39.5156 49.1769 39.508C49.1772 39.5005 49.1756 39.493 49.1723 39.4863C49.1691 39.4796 49.1642 39.4739 49.1581 39.4697C49.1431 39.4604 49.1257 39.4558 49.1081 39.4566H49.0149V39.4576ZM49.1091 39.3849C49.1491 39.3823 49.1887 39.3942 49.2211 39.4183C49.2341 39.4292 49.2444 39.4432 49.2513 39.459C49.2581 39.4748 49.2612 39.492 49.2604 39.5093C49.261 39.5242 49.2585 39.539 49.253 39.5528C49.2476 39.5666 49.2394 39.579 49.2289 39.5892C49.2038 39.6116 49.1724 39.625 49.1394 39.6275L49.2644 39.7741H49.1681L49.0531 39.6286H49.0159V39.7741H48.9354V39.3851H49.1104L49.1091 39.3849ZM49.0841 39.9083C49.1263 39.9087 49.1682 39.8999 49.2069 39.8826C49.2442 39.866 49.2781 39.8424 49.3069 39.8129C49.3357 39.7834 49.3587 39.7485 49.3746 39.7101C49.4074 39.6286 49.4074 39.537 49.3746 39.4556C49.3584 39.4172 49.3355 39.3824 49.3069 39.3527C49.2781 39.3232 49.2442 39.2996 49.2069 39.2831C49.1679 39.2667 49.1262 39.2584 49.0841 39.2589C49.0413 39.2585 48.9988 39.2667 48.9591 39.2831C48.921 39.2993 48.8862 39.3229 48.8569 39.3527C48.8126 39.3994 48.7827 39.4584 48.7709 39.5224C48.759 39.5864 48.7657 39.6525 48.7901 39.7126C48.8053 39.7512 48.828 39.7862 48.8569 39.8155C48.8863 39.8452 48.921 39.8689 48.9591 39.8851C48.9986 39.9025 49.0412 39.9112 49.0841 39.9108M49.0841 39.1653C49.194 39.1652 49.2995 39.2095 49.3779 39.2887C49.4156 39.3267 49.4457 39.3721 49.4664 39.4221C49.4877 39.4735 49.4987 39.5288 49.4987 39.5847C49.4987 39.6406 49.4877 39.6959 49.4664 39.7473C49.4452 39.7971 49.4152 39.8424 49.3779 39.8808C49.3395 39.9186 49.2949 39.949 49.2461 39.9707C49.1949 39.9931 49.1398 40.0045 49.0841 40.0041C49.0278 40.0046 48.972 39.9932 48.9201 39.9707C48.8708 39.9495 48.8257 39.919 48.7874 39.8808C48.75 39.841 48.7204 39.7942 48.7001 39.743C48.6787 39.6916 48.6677 39.6363 48.6677 39.5804C48.6677 39.5245 48.6787 39.4692 48.7001 39.4178C48.7207 39.3677 48.7508 39.3224 48.7886 39.2844C48.8265 39.2454 48.8716 39.2148 48.9214 39.1944C48.9733 39.1719 49.0291 39.1605 49.0854 39.161M10.8041 37.6633C10.8041 36.9216 11.2766 36.3124 12.0489 36.3124C12.7869 36.3124 13.2849 36.8954 13.2849 37.6633C13.2849 38.4311 12.7869 39.0142 12.0489 39.0142C11.2766 39.0142 10.8041 38.4049 10.8041 37.6633M14.1261 37.6633V35.5527H13.2339V36.0669C12.9509 35.6869 12.5216 35.4486 11.9379 35.4486C10.7879 35.4486 9.88536 36.3761 9.88536 37.6643C9.88536 38.9525 10.7874 39.88 11.9379 39.88C12.5214 39.88 12.9509 39.6414 13.2339 39.2617V39.7741H14.1251V37.6633H14.1261ZM44.2741 37.6633C44.2741 36.9216 44.7466 36.3124 45.5191 36.3124C46.2579 36.3124 46.7551 36.8954 46.7551 37.6633C46.7551 38.4311 46.2579 39.0142 45.5191 39.0142C44.7469 39.0142 44.2741 38.4049 44.2741 37.6633ZM47.5971 37.6633V33.8586H46.7041V36.0669C46.4211 35.6869 45.9919 35.4486 45.4081 35.4486C44.2581 35.4486 43.3556 36.3761 43.3556 37.6643C43.3556 38.9525 44.2576 39.88 45.4081 39.88C45.9919 39.88 46.4211 39.6414 46.7041 39.2617V39.7741H47.5971V37.6633ZM25.2001 36.2689C25.7751 36.2689 26.1444 36.6396 26.2386 37.2923H24.1096C24.2049 36.6831 24.5646 36.2689 25.2004 36.2689M25.2181 35.4463C24.0156 35.4463 23.1744 36.346 23.1744 37.662C23.1744 39.0036 24.0494 39.8777 25.2779 39.8777C25.8959 39.8777 26.4619 39.7191 26.9599 39.2864L26.5226 38.6065C26.1786 38.8892 25.7406 39.0478 25.3289 39.0478C24.7539 39.0478 24.2304 38.7741 24.1016 38.0144H27.1484C27.1571 37.9003 27.1661 37.7851 27.1661 37.6617C27.1571 36.3463 26.3661 35.446 25.2176 35.446M35.9901 37.6617C35.9901 36.9201 36.4626 36.3108 37.2349 36.3108C37.9729 36.3108 38.4709 36.8939 38.4709 37.6617C38.4709 38.4296 37.9729 39.0126 37.2349 39.0126C36.4626 39.0126 35.9899 38.4034 35.9899 37.6617M39.3119 37.6617V35.5527H38.4201V36.0669C38.1361 35.6869 37.7079 35.4486 37.1241 35.4486C35.9741 35.4486 35.0716 36.3761 35.0716 37.6643C35.0716 38.9525 35.9736 39.88 37.1241 39.88C37.7079 39.88 38.1361 39.6414 38.4201 39.2617V39.7741H39.3121V37.6633L39.3119 37.6617ZM30.9514 37.6617C30.9514 38.9417 31.8179 39.8774 33.1404 39.8774C33.7584 39.8774 34.1701 39.736 34.6154 39.3743L34.1869 38.6327C33.8519 38.8802 33.5001 39.0126 33.1119 39.0126C32.3996 39.0036 31.8759 38.4741 31.8759 37.6617C31.8759 36.8494 32.3996 36.3201 33.1119 36.3108C33.4991 36.3108 33.8509 36.4432 34.1869 36.6908L34.6154 35.9491C34.1694 35.5874 33.7576 35.446 33.1404 35.446C31.8179 35.446 30.9514 36.3815 30.9514 37.6617M42.4539 35.446C41.9391 35.446 41.6039 35.6936 41.3721 36.0643V35.5527H40.4879V39.7718H41.3811V37.4067C41.3811 36.7085 41.6729 36.3206 42.2561 36.3206C42.4471 36.3178 42.6368 36.3538 42.8141 36.4268L43.0891 35.562C42.8916 35.482 42.6341 35.4468 42.4534 35.4468M18.5374 35.8882C18.1081 35.5972 17.5166 35.4468 16.8641 35.4468C15.8246 35.4468 15.1554 35.9592 15.1554 36.7975C15.1554 37.4854 15.6536 37.9098 16.5711 38.0422L16.9926 38.1039C17.4819 38.1746 17.7129 38.307 17.7129 38.5453C17.7129 38.8715 17.3879 39.0576 16.7776 39.0576C16.1596 39.0576 15.7136 38.8545 15.4129 38.6162L14.9936 39.3317C15.4829 39.7023 16.1009 39.8792 16.7701 39.8792C17.9551 39.8792 18.6419 39.3054 18.6419 38.5021C18.6419 37.7604 18.1014 37.3725 17.2084 37.2401L16.7879 37.1774C16.4016 37.126 16.0921 37.046 16.0921 36.7633C16.0921 36.4548 16.3839 36.2692 16.8734 36.2692C17.3971 36.2692 17.9041 36.4723 18.1526 36.6309L18.5389 35.8892L18.5374 35.8882ZM30.0501 35.4476C29.5354 35.4476 29.2001 35.6951 28.9694 36.0658V35.5527H28.0851V39.7718H28.9774V37.4067C28.9774 36.7085 29.2691 36.3206 29.8524 36.3206C30.0434 36.3178 30.233 36.3538 30.4104 36.4268L30.6854 35.562C30.4879 35.482 30.2304 35.4468 30.0496 35.4468M22.4361 35.5527H20.9771V34.2728H20.0751V35.5527H19.2429V36.3913H20.0751V38.316C20.0751 39.2949 20.4446 39.8779 21.5001 39.8779C21.8874 39.8779 22.3334 39.7545 22.6164 39.5517L22.3586 38.7661C22.0924 38.9247 21.8006 39.0047 21.5686 39.0047C21.1226 39.0047 20.9771 38.7219 20.9771 38.2985V36.3921H22.4361V35.5527ZM9.09636 39.7728V37.125C9.09636 36.1278 8.47836 35.4568 7.48211 35.4478C6.95836 35.4389 6.41811 35.6065 6.03986 36.1985C5.75686 35.7306 5.31086 35.4478 4.68386 35.4478C4.24561 35.4478 3.81736 35.5802 3.48211 36.0743V35.5527H2.58911V39.7718H3.48911V37.4324C3.48911 36.7 3.88411 36.3108 4.49411 36.3108C5.08661 36.3108 5.38636 36.708 5.38636 37.4232V39.7712H6.28836V37.4319C6.28836 36.6995 6.70011 36.3103 7.29236 36.3103C7.90161 36.3103 8.19236 36.7075 8.19236 37.4227V39.7707L9.09636 39.7728Z" fill="#231F20"/>
<path d="M49.5234 25.7383V25.1213H49.3672L49.1864 25.5447L49.0067 25.1213H48.8499V25.7383H48.9609V25.2735L49.1299 25.6746H49.2449L49.4139 25.2725V25.7383H49.5239H49.5234ZM48.5322 25.7383V25.227H48.7322V25.1229H48.2212V25.227H48.4212V25.7383H48.5312H48.5322Z" fill="#F79410"/>
<path d="M31.7642 28.3843H18.2427V3.39716H31.7644L31.7642 28.3843Z" fill="#FF5F00"/>
<path d="M19.1 15.8912C19.1 10.8226 21.408 6.30741 25.002 3.39764C22.2815 1.19185 18.9167 -0.00530749 15.4523 -4.37512e-05C6.918 -4.37512e-05 0 7.11461 0 15.8912C0 24.6678 6.918 31.7825 15.4523 31.7825C18.9168 31.7878 22.2817 30.5906 25.0023 28.3848C21.4085 25.4755 19.1 20.9601 19.1 15.8912Z" fill="#EB001B"/>
<path d="M50.0062 15.8913C50.0062 24.6679 43.0882 31.7825 34.5539 31.7825C31.089 31.7878 27.7237 30.5906 25.0027 28.3849C28.5977 25.4751 30.9057 20.9602 30.9057 15.8913C30.9057 10.8224 28.5977 6.30747 25.0027 3.3977C27.7237 1.19198 31.0889 -0.00515419 34.5537 1.66811e-05C43.0879 1.66811e-05 50.0059 7.11467 50.0059 15.8913" fill="#F79E1B"/>
</g>
<defs>
<clipPath id="clip0_1517_188">
<rect width="50" height="40" fill="white"/>
</clipPath>
</defs>
</svg>
