<svg width="40" height="40" viewBox="0 0 40 40" fill="none" xmlns="http://www.w3.org/2000/svg">
<g clip-path="url(#clip0_1521_188)">
<path d="M29.5271 23.1655C29.5271 23.7991 28.7712 24.5779 28.1564 24.5779H27.5966C27.5972 20.7005 27.5972 16.3535 27.5966 15.5819C27.5963 15.5591 27.6006 15.5364 27.6091 15.5152C27.6177 15.494 27.6303 15.4747 27.6463 15.4584C27.6623 15.4421 27.6814 15.4292 27.7024 15.4202C27.7235 15.4113 27.746 15.4066 27.7689 15.4064H29.354C29.4492 15.4064 29.5272 15.4863 29.5272 15.5833V23.1655H29.5271ZM26.9441 25.9385C26.9441 26.3396 26.7479 27.0114 25.4333 27.0114C22.8859 27.0114 21.3221 25.0156 21.3221 23.5842C21.3221 23.5842 21.3193 18.9559 21.3193 15.5834C21.319 15.5605 21.3233 15.5378 21.3318 15.5166C21.3404 15.4954 21.353 15.476 21.3691 15.4597C21.3851 15.4434 21.4042 15.4304 21.4253 15.4215C21.4464 15.4127 21.469 15.408 21.4919 15.4079H23.079C23.1742 15.4079 23.2525 15.4873 23.2525 15.5849V23.0214C23.2525 24.2501 24.2249 25.2467 25.4237 25.2467H26.9449L26.9441 25.9385ZM29.4743 14.7395H27.6483C27.2601 14.7395 26.9439 15.0638 26.9439 15.4616V24.5787H25.4226C24.5832 24.5787 23.903 23.8813 23.903 23.0212V15.4616C23.903 15.0628 23.5872 14.7392 23.1982 14.7392H21.3715C20.9824 14.7392 20.6668 15.0628 20.6662 15.4616C20.6652 18.7579 20.669 23.5844 20.669 23.5844C20.6693 26.1213 23.4437 27.6791 25.4328 27.6791C26.767 27.6791 27.5957 27.0107 27.5957 25.9339V25.2465H28.1561C29.139 25.2465 30.1787 24.1771 30.1787 23.1655V15.4616C30.1797 15.0628 29.864 14.7392 29.4744 14.7392V14.7395H29.4743ZM18.6825 24.4166C18.6827 24.4394 18.6784 24.4621 18.6699 24.4833C18.6613 24.5045 18.6486 24.5237 18.6326 24.54C18.6166 24.5563 18.5975 24.5693 18.5764 24.5781C18.5554 24.587 18.5328 24.5916 18.5099 24.5917H16.9229C16.8263 24.5917 16.7489 24.5117 16.7494 24.4152V16.9786C16.7494 15.75 15.7767 14.7534 14.5781 14.7534H13.0568V14.0614C13.0568 13.6612 13.253 12.9885 14.5676 12.9885C17.1151 12.9885 18.6793 14.9842 18.6793 16.4157C18.6793 16.4157 18.6821 21.0664 18.6821 24.4165H18.6825V24.4166ZM10.6461 24.5933C10.5495 24.5904 10.4723 24.5126 10.4734 24.4161V16.8352C10.4734 16.2016 11.2295 15.4217 11.844 15.4217H12.4043C12.4035 20.9743 12.4035 23.8156 12.4043 24.4157C12.4048 24.4621 12.3868 24.5067 12.3544 24.5399C12.322 24.5731 12.2778 24.592 12.2314 24.5927H10.6464L10.6461 24.5933ZM19.3307 16.4158C19.331 13.8786 16.5565 12.3208 14.5676 12.3208C13.2331 12.3208 12.4043 12.9891 12.4043 14.066V14.7534H11.8443C10.861 14.7534 9.82129 15.8228 9.82129 16.8345V24.5383C9.82129 24.9371 10.137 25.2607 10.5258 25.2607H12.3514C12.3628 25.2607 12.3725 25.2576 12.3839 25.2576C12.757 25.2397 13.0559 24.9255 13.0559 24.5383V15.4212H14.5774C15.4164 15.4212 16.097 16.1186 16.097 16.9787V24.5384C16.097 24.9372 16.4128 25.2608 16.8016 25.2608H18.6287C19.0177 25.2608 19.3332 24.938 19.3332 24.5384C19.3345 21.1806 19.3309 16.4156 19.3309 16.4156L19.3307 16.4158Z" fill="white"/>
</g>
<defs>
<clipPath id="clip0_1521_188">
<rect width="40" height="40" fill="white"/>
</clipPath>
</defs>
</svg>
